<svg id="Layer_1" data-name="Layer 1" xmlns="http://www.w3.org/2000/svg" xmlns:xlink="http://www.w3.org/1999/xlink" viewBox="0 0 269.40594 97.8356"><defs><style>.cls-1{fill:#fff;}.cls-2{fill:url(#linear-gradient);}.cls-3{fill:url(#linear-gradient-2);}.cls-4{fill:url(#linear-gradient-3);}</style><linearGradient id="linear-gradient" x1="257.66838" y1="76.61031" x2="264.60846" y2="33.79914" gradientTransform="translate(-165.34615 -9.42324) rotate(5.93366)" gradientUnits="userSpaceOnUse"><stop offset="0.11006" stop-color="#fff" stop-opacity="0.15"/><stop offset="0.11916" stop-color="#fff" stop-opacity="0.17542"/><stop offset="0.19397" stop-color="#fff" stop-opacity="0.36709"/><stop offset="0.27278" stop-color="#fff" stop-opacity="0.53683"/><stop offset="0.35426" stop-color="#fff" stop-opacity="0.67982"/><stop offset="0.4392" stop-color="#fff" stop-opacity="0.79635"/><stop offset="0.52868" stop-color="#fff" stop-opacity="0.88648"/><stop offset="0.62468" stop-color="#fff" stop-opacity="0.95033"/><stop offset="0.73196" stop-color="#fff" stop-opacity="0.98811"/><stop offset="0.87336" stop-color="#fff"/></linearGradient><linearGradient id="linear-gradient-2" x1="61.58388" y1="58.861" x2="57.15591" y2="86.81809" gradientTransform="translate(-6.40896 9.82634) rotate(0.14172)" gradientUnits="userSpaceOnUse"><stop offset="0.04655" stop-color="#fff" stop-opacity="0.15"/><stop offset="0.11149" stop-color="#fff" stop-opacity="0.28836"/><stop offset="0.21138" stop-color="#fff" stop-opacity="0.47558"/><stop offset="0.31438" stop-color="#fff" stop-opacity="0.6368"/><stop offset="0.41884" stop-color="#fff" stop-opacity="0.76827"/><stop offset="0.52527" stop-color="#fff" stop-opacity="0.87019"/><stop offset="0.63444" stop-color="#fff" stop-opacity="0.94268"/><stop offset="0.74809" stop-color="#fff" stop-opacity="0.9859"/><stop offset="0.87336" stop-color="#fff"/></linearGradient><linearGradient id="linear-gradient-3" x1="62.54858" y1="59.13337" x2="133.68814" y2="105.33193" gradientTransform="translate(-6.40896 9.82634) rotate(0.14172)" gradientUnits="userSpaceOnUse"><stop offset="0.0005" stop-color="#fff"/><stop offset="0.18399" stop-color="#fff" stop-opacity="0.6"/><stop offset="0.33217" stop-color="#fff"/></linearGradient></defs><title>FI-Stacked-Invert-White</title><path class="cls-1" d="M137.05183,48.64464h14.60426v6.68763H137.05183V70.04288h-7.52358V34.286h23.40646v6.3926H137.05183Z" transform="translate(-26.86648 -25.51008)"/><path class="cls-1" d="M172.8986,46.776a12.32268,12.32268,0,0,1,4.76983,4.57306,13.28707,13.28707,0,0,1,0,13.08024,12.31023,12.31023,0,0,1-4.76983,4.573,15.11051,15.11051,0,0,1-13.81768,0,12.3,12.3,0,0,1-4.76982-4.573,13.28707,13.28707,0,0,1,0-13.08024,12.31246,12.31246,0,0,1,4.76982-4.57306,15.11051,15.11051,0,0,1,13.81768,0ZM161.31832,52.8981a6.74427,6.74427,0,0,0-1.84411,4.99116,6.74288,6.74288,0,0,0,1.84411,4.99091,6.3599,6.3599,0,0,0,4.69588,1.84411,6.27969,6.27969,0,0,0,4.67157-1.84411,6.79743,6.79743,0,0,0,1.8193-4.99091,6.79884,6.79884,0,0,0-1.8193-4.99116A6.28064,6.28064,0,0,0,166.0142,51.054,6.36087,6.36087,0,0,0,161.31832,52.8981Z" transform="translate(-26.86648 -25.51008)"/><path class="cls-1" d="M201.02552,46.776a12.32265,12.32265,0,0,1,4.76982,4.57306,13.28707,13.28707,0,0,1,0,13.08024,12.3102,12.3102,0,0,1-4.76982,4.573,15.11053,15.11053,0,0,1-13.81769,0,12.3,12.3,0,0,1-4.76982-4.573,13.28707,13.28707,0,0,1,0-13.08024,12.31246,12.31246,0,0,1,4.76982-4.57306,15.11053,15.11053,0,0,1,13.81769,0ZM189.44523,52.8981a6.74427,6.74427,0,0,0-1.84411,4.99116,6.74288,6.74288,0,0,0,1.84411,4.99091,6.35992,6.35992,0,0,0,4.69589,1.84411,6.27968,6.27968,0,0,0,4.67156-1.84411,6.79743,6.79743,0,0,0,1.8193-4.99091,6.79884,6.79884,0,0,0-1.8193-4.99116,6.28064,6.28064,0,0,0-4.67156-1.84411A6.3609,6.3609,0,0,0,189.44523,52.8981Z" transform="translate(-26.86648 -25.51008)"/><path class="cls-1" d="M218.92446,45.59585H224.137v4.91722h-5.21249V62.60971a2.35788,2.35788,0,0,0,.68856,1.81955,2.78276,2.78276,0,0,0,1.96669.63918,7.28244,7.28244,0,0,0,1.96694-.34416l.3444.19652v5.26163a19.073,19.073,0,0,1-4.3274.49179,7.70987,7.70987,0,0,1-5.45815-1.86867q-2.01693-1.86805-2.01606-5.60578V50.51307H207.7129V45.59585h4.37654V38.56406h.88508l5.94994,2.06544Z" transform="translate(-26.86648 -25.51008)"/><path class="cls-1" d="M232.59426,47.95607a11.42761,11.42761,0,0,1,7.72035-2.852,12.118,12.118,0,0,1,5.77773,1.426,10.628,10.628,0,0,1,4.3026,4.32741,14.20587,14.20587,0,0,1,1.62278,7.03179,13.57021,13.57021,0,0,1-1.69648,7.007,11.39863,11.39863,0,0,1-9.85924,5.778,10.46885,10.46885,0,0,1-7.86774-3.14705v2.65526H225.7101V34.286h6.88416Zm0,11.1133a5.52728,5.52728,0,0,0,1.77041,4.278,6.042,6.042,0,0,0,4.2289,1.62278,6.15551,6.15551,0,0,0,4.64675-1.86867,7.21607,7.21607,0,0,0,1.79474-5.21225,7.279,7.279,0,0,0-1.77017-5.21249,6.018,6.018,0,0,0-4.57306-1.86868,6.14565,6.14565,0,0,0-4.352,1.62278,5.56532,5.56532,0,0,0-1.7456,4.278Z" transform="translate(-26.86648 -25.51008)"/><path class="cls-1" d="M256.7131,69.76457a7.05218,7.05218,0,0,1-2.852-2.60637,7.32419,7.32419,0,0,1-1.057-3.95843,6.86862,6.86862,0,0,1,2.28652-5.38445,10.87516,10.87516,0,0,1,6.3678-2.43392l6.6385-.68856V53.611a3.29867,3.29867,0,0,0-1.05729-2.60612,4.34834,4.34834,0,0,0-2.97509-.93421,4.10951,4.10951,0,0,0-2.77808.90965,3.75031,3.75031,0,0,0-1.25405,2.48329l-5.8023-.49179-.2459-.295a8.69038,8.69038,0,0,1,3.46664-5.63034,11.28023,11.28023,0,0,1,6.7122-1.94238A11.70679,11.70679,0,0,1,271.73546,47.44a7.95156,7.95156,0,0,1,2.9014,6.56456v8.802q0,2.31171,1.77017,2.31109a2.66628,2.66628,0,0,0,.93421-.14739l.2459.295v4.72045a11.03145,11.03145,0,0,1-3.39294.49179,5.62891,5.62891,0,0,1-5.55641-3.34381h-.29527a12.35193,12.35193,0,0,1-3.44208,2.63093,9.46162,9.46162,0,0,1-4.278.90965A8.52511,8.52511,0,0,1,256.7131,69.76457Zm11.38377-7.89231v-2.852l-5.40926.68832a4.55489,4.55489,0,0,0-2.63069,1.03272,2.69291,2.69291,0,0,0-.90965,2.0652,2.41693,2.41693,0,0,0,.836,1.94237,3.2917,3.2917,0,0,0,2.21283.71288Q265.48963,65.46173,268.09687,61.87226Z" transform="translate(-26.86648 -25.51008)"/><path class="cls-1" d="M285.84768,70.18243h-6.835V34.286h6.835Z" transform="translate(-26.86648 -25.51008)"/><path class="cls-1" d="M296.27241,70.18243h-6.835V34.286h6.835Z" transform="translate(-26.86648 -25.51008)"/><path class="cls-1" d="M137.05183,114.5755h-7.52358V78.81288h7.52358Z" transform="translate(-26.86648 -25.51008)"/><path class="cls-1" d="M146.83639,93.18511a10.90282,10.90282,0,0,1,8.16277-3.688,8.33768,8.33768,0,0,1,6.245,2.31134,8.15076,8.15076,0,0,1,2.262,5.94994V114.5755h-6.88415v-14.801a4.70806,4.70806,0,0,0-1.00816-3.27012,3.82358,3.82358,0,0,0-2.97484-1.10642,5.81894,5.81894,0,0,0-3.29469,1.05729,8.163,8.163,0,0,0-2.50786,2.63068V114.5755h-6.88415V89.98893h6.88415Z" transform="translate(-26.86648 -25.51008)"/><path class="cls-1" d="M191.28885,114.5755h-6.835v-2.557a10.13574,10.13574,0,0,1-7.62185,3.04879,11.85835,11.85835,0,0,1-5.63035-1.45058,11.49017,11.49017,0,0,1-4.47479-4.352,14.98031,14.98031,0,0,1-.02457-13.98964,11.23924,11.23924,0,0,1,4.52393-4.3274,12.87132,12.87132,0,0,1,5.99907-1.45058,11.40587,11.40587,0,0,1,7.22856,2.50786V78.67911h6.835Zm-17.53022-7.08092a6.654,6.654,0,0,0,8.94959.27047,5.54852,5.54852,0,0,0,1.74561-4.3026V101.102a5.56794,5.56794,0,0,0-1.74561-4.278,6.14814,6.14814,0,0,0-4.352-1.62278,6.07655,6.07655,0,0,0-4.62219,1.86868,8.51244,8.51244,0,0,0,.02457,10.42473Z" transform="translate(-26.86648 -25.51008)"/><path class="cls-1" d="M199.25411,103.954a5.89507,5.89507,0,0,0,1.96693,4.05694,6.34576,6.34576,0,0,0,4.32716,1.49971,5.42343,5.42343,0,0,0,5.60578-3.78623l5.8023.59005.29528.59006a11.29465,11.29465,0,0,1-4.352,6.12214,14.458,14.458,0,0,1-14.01421.44242,11.41621,11.41621,0,0,1-4.49936-4.49937,13.465,13.465,0,0,1-1.62278-6.68738,12.62325,12.62325,0,0,1,1.74561-6.6385,12.4206,12.4206,0,0,1,4.647-4.52393,12.58415,12.58415,0,0,1,6.245-1.62278,13.41758,13.41758,0,0,1,6.4663,1.52452,10.63024,10.63024,0,0,1,4.37629,4.37629,13.912,13.912,0,0,1,1.54884,6.73676v1.8193Zm11.99813-4.42542a5.11743,5.11743,0,0,0-1.86843-3.54058,6.15988,6.15988,0,0,0-4.03238-1.32751A5.79918,5.79918,0,0,0,201.5652,95.988a6.14028,6.14028,0,0,0-2.11433,3.54058Z" transform="translate(-26.86648 -25.51008)"/><path class="cls-1" d="M232.74016,101.15136l8.4578,13.42414h-7.76924l-4.76983-7.966-4.76982,7.966H216.169l8.40842-13.42414-7.62184-11.16243h7.91687l3.78648,5.94994,3.78624-5.94994H240.362Z" transform="translate(-26.86648 -25.51008)"/><path class="cls-1" d="M71.56538,28.51008a13.54584,13.54584,0,0,1,6.79419,1.82953l28.00818,16.263a13.56831,13.56831,0,0,1,6.73632,11.7345l-.08007,32.3872a13.56827,13.56827,0,0,1-6.79432,11.70111L78.14155,118.54966a13.53064,13.53064,0,0,1-13.53052-.03351L40.43879,104.48051l-3.83606-2.22736a13.58629,13.58629,0,0,1-6.7362-11.73449l.08007-32.38721A13.56825,13.56825,0,0,1,36.74092,46.4304L64.82905,30.30613a13.55116,13.55116,0,0,1,6.73633-1.79605m0-3a16.51965,16.51965,0,0,0-8.22986,2.19428L35.24738,43.82859A16.53065,16.53065,0,0,0,26.9466,58.124l-.08007,32.38721a16.58653,16.58653,0,0,0,8.22985,14.3363l3.83594,2.22736,24.17224,14.03564a16.53057,16.53057,0,0,0,16.53052.0409l28.08813-16.12421A16.53066,16.53066,0,0,0,116.024,90.73173l.08007-32.38721a16.53072,16.53072,0,0,0-8.22985-14.3363L79.866,27.74525a16.52027,16.52027,0,0,0-8.30066-2.23517Z" transform="translate(-26.86648 -25.51008)"/><path class="cls-2" d="M100.1443,54.73777a2.17057,2.17057,0,0,0-2.87258-2.01193L82.78226,57.6811a2.17057,2.17057,0,0,0-.54282,3.83171l3.20532,2.245L76.07442,77.74957l2.06652,2.38779a5.68549,5.68549,0,0,0,4.38337,2.37188,5.13971,5.13971,0,0,0,4.11624-2.03334l-.00073.00114,7.2404-10.811,3.14389,2.202a2.17057,2.17057,0,0,0,3.4154-1.81967Z" transform="translate(-26.86648 -25.51008)"/><path class="cls-3" d="M56.14356,73.139a5.12725,5.12725,0,0,0-4.10794,2.037L43.34047,88.28805a5.14813,5.14813,0,1,0,8.61668,5.63611L62.58456,77.89831l-2.05775-2.38746A5.68508,5.68508,0,0,0,56.14356,73.139Z" transform="translate(-26.86648 -25.51008)"/><path class="cls-4" d="M82.52431,82.50924a5.68549,5.68549,0,0,1-4.38337-2.37188l-2.06652-2.38779-6.0893-7.03592-.00012.00024-4.05773-4.70807c-.03572-.0409-.0753-.0764-.112-.11591-.06474-.06976-.12984-.13916-.19759-.20448-.0674-.06489-.13864-.12691-.21025-.18852-.05482-.04737-.10927-.09523-.16566-.1399-.09117-.07205-.18669-.14026-.28389-.20691-.04308-.02956-.08543-.06056-.12936-.08873-.10561-.06788-.21364-.12909-.32228-.18832-.04357-.02373-.0863-.04931-.13048-.07172-.101-.05128-.20387-.09571-.30666-.13978-.05643-.02406-.11214-.0504-.16918-.07242-.08851-.03417-.17835-.062-.26795-.091-.073-.02356-.14557-.04935-.21944-.0696-.07616-.021-.15317-.03608-.22982-.05346-.0871-.01957-.17383-.041-.26179-.05606-.07161-.01226-.14347-.019-.21533-.02818-.09169-.01177-.18313-.0251-.27531-.03193-.0798-.00585-.15949-.00587-.23918-.008-.08306-.00231-.166-.00666-.24917-.00494-.09713.0021-.19368.0107-.29034.01827-.065.005-.13008.00731-.19489.01479-.11242.01306-.2239.0331-.33514.0535-.04906.009-.09836.01514-.14719.02554-.11618.02477-.23069.05682-.345.08948-.04438.01275-.08924.02286-.13339.03681-.10671.03363-.21114.07437-.31558.115-.052.0203-.10479.038-.15629.06007-.08809.03759-.17366.08149-.25971.124-.06752.03349-.13563.06494-.20195.10155-.06753.03722-.13254.07943-.19851.11972-.08211.0504-.16457.1-.2444.15536-.052.036-.10176.07577-.1527.11387-.08815.06608-.17583.13287-.26087.20545-.034.02906-.06614.06084-.09951.09092a5.00625,5.00625,0,0,0-.39224.39486c-.02676.03-.05424.05895-.0804.08972a5.2946,5.2946,0,0,0-.39135.52l-.0024-.001-5.7045,8.60208a5.12725,5.12725,0,0,1,4.10794-2.037,5.68508,5.68508,0,0,1,4.38325,2.37189l2.05775,2.38746,3.9489,4.582.00723-.00719L72.492,89.3549l.24848.28742a5.17259,5.17259,0,0,0,.73993.69487l.057.04251c.107.08008.217.15476.32868.22559.04045.02511.08066.05039.12147.07429.07753.04617.15689.088.23636.12974.07335.038.14645.07742.22114.11156.02629.01226.05331.02237.07973.03415a5.14249,5.14249,0,0,0,6.33787-1.85168L86.63982,80.477l.00073-.00114A5.13971,5.13971,0,0,1,82.52431,82.50924Z" transform="translate(-26.86648 -25.51008)"/></svg>